<mxfile host="app.diagrams.net" agent="Mozilla/5.0 (X11; Linux x86_64; rv:109.0) Gecko/20100101 Firefox/115.0" version="28.0.7" pages="3">
  <diagram name="Page-1" id="KIjRvbK2gKt36riTGWMO">
    <mxGraphModel dx="862" dy="1555" grid="1" gridSize="10" guides="1" tooltips="1" connect="1" arrows="1" fold="1" page="1" pageScale="1" pageWidth="850" pageHeight="1100" math="0" shadow="0">
      <root>
        <mxCell id="0" />
        <mxCell id="1" parent="0" />
        <mxCell id="H4ilXOE2Qp5ZFrDJ_8Ro-21" value="" style="rounded=0;whiteSpace=wrap;html=1;" vertex="1" parent="1">
          <mxGeometry x="110" y="-163.75" width="610" height="742.5" as="geometry" />
        </mxCell>
        <mxCell id="H4ilXOE2Qp5ZFrDJ_8Ro-1" value="Utilisateur" style="shape=umlActor;verticalLabelPosition=bottom;verticalAlign=top;html=1;outlineConnect=0;" vertex="1" parent="1">
          <mxGeometry x="20" y="-90" width="40" height="90" as="geometry" />
        </mxCell>
        <mxCell id="H4ilXOE2Qp5ZFrDJ_8Ro-3" value="Enseignant" style="shape=umlActor;verticalLabelPosition=bottom;verticalAlign=top;html=1;outlineConnect=0;" vertex="1" parent="1">
          <mxGeometry x="10" y="250" width="50" height="90" as="geometry" />
        </mxCell>
        <mxCell id="H4ilXOE2Qp5ZFrDJ_8Ro-4" value="Admin" style="shape=umlActor;verticalLabelPosition=bottom;verticalAlign=top;html=1;outlineConnect=0;" vertex="1" parent="1">
          <mxGeometry x="30" y="400" width="50" height="90" as="geometry" />
        </mxCell>
        <mxCell id="H4ilXOE2Qp5ZFrDJ_8Ro-8" value="auth" style="ellipse;whiteSpace=wrap;html=1;" vertex="1" parent="1">
          <mxGeometry x="175" y="-120" width="130" height="40" as="geometry" />
        </mxCell>
        <mxCell id="H4ilXOE2Qp5ZFrDJ_8Ro-9" value="connection " style="ellipse;whiteSpace=wrap;html=1;" vertex="1" parent="1">
          <mxGeometry x="460" y="-100" width="132.5" height="30" as="geometry" />
        </mxCell>
        <mxCell id="H4ilXOE2Qp5ZFrDJ_8Ro-12" value=" Uploader ses fichiers " style="ellipse;whiteSpace=wrap;html=1;" vertex="1" parent="1">
          <mxGeometry x="197.5" y="-30" width="90" height="30" as="geometry" />
        </mxCell>
        <mxCell id="H4ilXOE2Qp5ZFrDJ_8Ro-13" value="Generer les Quiz" style="ellipse;whiteSpace=wrap;html=1;" vertex="1" parent="1">
          <mxGeometry x="536.25" y="-3.75" width="100" height="33.75" as="geometry" />
        </mxCell>
        <mxCell id="H4ilXOE2Qp5ZFrDJ_8Ro-14" value="envoie de fiches d&#39;evaluation a l&#39;enseignant" style="ellipse;whiteSpace=wrap;html=1;" vertex="1" parent="1">
          <mxGeometry x="270" y="200" width="160" height="35" as="geometry" />
        </mxCell>
        <mxCell id="H4ilXOE2Qp5ZFrDJ_8Ro-15" value="inscrir" style="ellipse;whiteSpace=wrap;html=1;" vertex="1" parent="1">
          <mxGeometry x="440" y="-160" width="120" height="30" as="geometry" />
        </mxCell>
        <mxCell id="H4ilXOE2Qp5ZFrDJ_8Ro-16" value="chater des questions " style="ellipse;whiteSpace=wrap;html=1;" vertex="1" parent="1">
          <mxGeometry x="240" y="40" width="90" height="30" as="geometry" />
        </mxCell>
        <mxCell id="H4ilXOE2Qp5ZFrDJ_8Ro-18" value="Passer des quiz/" style="ellipse;whiteSpace=wrap;html=1;" vertex="1" parent="1">
          <mxGeometry x="530" y="45" width="112.5" height="45" as="geometry" />
        </mxCell>
        <mxCell id="H4ilXOE2Qp5ZFrDJ_8Ro-19" value="Consulter les réponses à ses quiz" style="ellipse;whiteSpace=wrap;html=1;" vertex="1" parent="1">
          <mxGeometry x="440" y="-60" width="120" height="47.5" as="geometry" />
        </mxCell>
        <mxCell id="H4ilXOE2Qp5ZFrDJ_8Ro-28" value=" Suivre sa progression" style="ellipse;whiteSpace=wrap;html=1;" vertex="1" parent="1">
          <mxGeometry x="130" y="180" width="120" height="45" as="geometry" />
        </mxCell>
        <mxCell id="H4ilXOE2Qp5ZFrDJ_8Ro-30" value="Generer les recommandations personnalisées" style="ellipse;whiteSpace=wrap;html=1;" vertex="1" parent="1">
          <mxGeometry x="500" y="120" width="120" height="50" as="geometry" />
        </mxCell>
        <mxCell id="H4ilXOE2Qp5ZFrDJ_8Ro-31" value="accepter les invitation a rejoindre un groupe" style="ellipse;whiteSpace=wrap;html=1;" vertex="1" parent="1">
          <mxGeometry x="270" y="140" width="200" height="42.5" as="geometry" />
        </mxCell>
        <mxCell id="H4ilXOE2Qp5ZFrDJ_8Ro-32" value="Génération des quiz" style="ellipse;whiteSpace=wrap;html=1;" vertex="1" parent="1">
          <mxGeometry x="130" y="260" width="120" height="40" as="geometry" />
        </mxCell>
        <mxCell id="H4ilXOE2Qp5ZFrDJ_8Ro-34" value="Ajouter, modifier des cours, quiz, exercices" style="ellipse;whiteSpace=wrap;html=1;" vertex="1" parent="1">
          <mxGeometry x="320" y="250" width="150" height="40" as="geometry" />
        </mxCell>
        <mxCell id="H4ilXOE2Qp5ZFrDJ_8Ro-35" value="suivre les progression de ses élèves/étudiants" style="ellipse;whiteSpace=wrap;html=1;" vertex="1" parent="1">
          <mxGeometry x="540" y="250" width="140" height="50" as="geometry" />
        </mxCell>
        <mxCell id="H4ilXOE2Qp5ZFrDJ_8Ro-41" value="Répondre aux questions des élèves" style="ellipse;whiteSpace=wrap;html=1;" vertex="1" parent="1">
          <mxGeometry x="400" y="390" width="130" height="40" as="geometry" />
        </mxCell>
        <mxCell id="H4ilXOE2Qp5ZFrDJ_8Ro-42" value="gère les paramètres du système ( pricing and limitation ) " style="ellipse;whiteSpace=wrap;html=1;" vertex="1" parent="1">
          <mxGeometry x="160" y="390" width="200" height="40" as="geometry" />
        </mxCell>
        <mxCell id="H4ilXOE2Qp5ZFrDJ_8Ro-43" value="Moderer le contenus de la plateforme/ evaluer l’etat de l’utilisations" style="ellipse;whiteSpace=wrap;html=1;" vertex="1" parent="1">
          <mxGeometry x="190" y="520" width="190" height="50" as="geometry" />
        </mxCell>
        <mxCell id="H4ilXOE2Qp5ZFrDJ_8Ro-44" value="inviter les membres/eleves/etudiants" style="ellipse;whiteSpace=wrap;html=1;" vertex="1" parent="1">
          <mxGeometry x="322.5" y="320" width="170" height="40" as="geometry" />
        </mxCell>
        <mxCell id="H4ilXOE2Qp5ZFrDJ_8Ro-45" value="Superviser les couts de l’IA" style="ellipse;whiteSpace=wrap;html=1;" vertex="1" parent="1">
          <mxGeometry x="530" y="480" width="120" height="40" as="geometry" />
        </mxCell>
        <mxCell id="H4ilXOE2Qp5ZFrDJ_8Ro-46" value=" Gérer les utilisateurs" style="ellipse;whiteSpace=wrap;html=1;" vertex="1" parent="1">
          <mxGeometry x="410" y="500" width="120" height="40" as="geometry" />
        </mxCell>
        <mxCell id="H4ilXOE2Qp5ZFrDJ_8Ro-47" value="lancer un test" style="ellipse;whiteSpace=wrap;html=1;" vertex="1" parent="1">
          <mxGeometry x="547.5" y="350" width="120" height="40" as="geometry" />
        </mxCell>
        <mxCell id="H4ilXOE2Qp5ZFrDJ_8Ro-59" value="" style="endArrow=none;html=1;rounded=0;" edge="1" parent="1" source="H4ilXOE2Qp5ZFrDJ_8Ro-1" target="H4ilXOE2Qp5ZFrDJ_8Ro-8">
          <mxGeometry width="50" height="50" relative="1" as="geometry">
            <mxPoint x="290" y="110" as="sourcePoint" />
            <mxPoint x="340" y="60" as="targetPoint" />
            <Array as="points" />
          </mxGeometry>
        </mxCell>
        <mxCell id="H4ilXOE2Qp5ZFrDJ_8Ro-65" value="Extends" style="endArrow=block;endSize=16;endFill=0;html=1;rounded=0;" edge="1" parent="1" source="H4ilXOE2Qp5ZFrDJ_8Ro-8" target="H4ilXOE2Qp5ZFrDJ_8Ro-15">
          <mxGeometry width="160" relative="1" as="geometry">
            <mxPoint x="270" y="-105.5" as="sourcePoint" />
            <mxPoint x="430" y="-105.5" as="targetPoint" />
          </mxGeometry>
        </mxCell>
        <mxCell id="H4ilXOE2Qp5ZFrDJ_8Ro-66" value="Extends" style="endArrow=block;endSize=16;endFill=0;html=1;rounded=0;" edge="1" parent="1" source="H4ilXOE2Qp5ZFrDJ_8Ro-8" target="H4ilXOE2Qp5ZFrDJ_8Ro-9">
          <mxGeometry width="160" relative="1" as="geometry">
            <mxPoint x="290" y="-60" as="sourcePoint" />
            <mxPoint x="450" y="-60" as="targetPoint" />
          </mxGeometry>
        </mxCell>
        <mxCell id="H4ilXOE2Qp5ZFrDJ_8Ro-69" value="" style="endArrow=none;html=1;rounded=0;entryX=0;entryY=1;entryDx=0;entryDy=0;" edge="1" parent="1" target="H4ilXOE2Qp5ZFrDJ_8Ro-46">
          <mxGeometry width="50" height="50" relative="1" as="geometry">
            <mxPoint x="70" y="470" as="sourcePoint" />
            <mxPoint x="120" y="420" as="targetPoint" />
          </mxGeometry>
        </mxCell>
        <mxCell id="H4ilXOE2Qp5ZFrDJ_8Ro-70" value="" style="endArrow=none;html=1;rounded=0;exitX=1;exitY=1;exitDx=0;exitDy=0;exitPerimeter=0;" edge="1" parent="1" source="H4ilXOE2Qp5ZFrDJ_8Ro-4" target="H4ilXOE2Qp5ZFrDJ_8Ro-43">
          <mxGeometry width="50" height="50" relative="1" as="geometry">
            <mxPoint x="50" y="470" as="sourcePoint" />
            <mxPoint x="100" y="420" as="targetPoint" />
            <Array as="points" />
          </mxGeometry>
        </mxCell>
        <mxCell id="H4ilXOE2Qp5ZFrDJ_8Ro-71" value="" style="endArrow=none;html=1;rounded=0;" edge="1" parent="1" target="H4ilXOE2Qp5ZFrDJ_8Ro-45">
          <mxGeometry width="50" height="50" relative="1" as="geometry">
            <mxPoint x="60" y="450" as="sourcePoint" />
            <mxPoint x="110" y="400" as="targetPoint" />
          </mxGeometry>
        </mxCell>
        <mxCell id="H4ilXOE2Qp5ZFrDJ_8Ro-72" value="" style="endArrow=none;html=1;rounded=0;entryX=0.043;entryY=0.6;entryDx=0;entryDy=0;entryPerimeter=0;" edge="1" parent="1" source="H4ilXOE2Qp5ZFrDJ_8Ro-4" target="H4ilXOE2Qp5ZFrDJ_8Ro-42">
          <mxGeometry width="50" height="50" relative="1" as="geometry">
            <mxPoint x="70" y="430" as="sourcePoint" />
            <mxPoint x="120" y="380" as="targetPoint" />
          </mxGeometry>
        </mxCell>
        <mxCell id="H4ilXOE2Qp5ZFrDJ_8Ro-75" value="Extends" style="endArrow=block;endSize=16;endFill=0;html=1;rounded=0;entryX=1;entryY=0;entryDx=0;entryDy=0;exitX=0.344;exitY=0.967;exitDx=0;exitDy=0;exitPerimeter=0;" edge="1" parent="1" source="H4ilXOE2Qp5ZFrDJ_8Ro-12" target="H4ilXOE2Qp5ZFrDJ_8Ro-16">
          <mxGeometry width="160" relative="1" as="geometry">
            <mxPoint x="300" y="30" as="sourcePoint" />
            <mxPoint x="460" y="30" as="targetPoint" />
          </mxGeometry>
        </mxCell>
        <mxCell id="H4ilXOE2Qp5ZFrDJ_8Ro-76" value="Extends" style="endArrow=block;endSize=16;endFill=0;html=1;rounded=0;exitX=0.5;exitY=1;exitDx=0;exitDy=0;" edge="1" parent="1" source="H4ilXOE2Qp5ZFrDJ_8Ro-12" target="H4ilXOE2Qp5ZFrDJ_8Ro-18">
          <mxGeometry width="160" relative="1" as="geometry">
            <mxPoint x="350" y="20" as="sourcePoint" />
            <mxPoint x="510" y="20" as="targetPoint" />
          </mxGeometry>
        </mxCell>
        <mxCell id="H4ilXOE2Qp5ZFrDJ_8Ro-78" value="" style="endArrow=none;html=1;rounded=0;entryX=0;entryY=1;entryDx=0;entryDy=0;" edge="1" parent="1" target="H4ilXOE2Qp5ZFrDJ_8Ro-8">
          <mxGeometry width="50" height="50" relative="1" as="geometry">
            <mxPoint x="60" y="410" as="sourcePoint" />
            <mxPoint x="192.55999999999995" y="34" as="targetPoint" />
          </mxGeometry>
        </mxCell>
        <mxCell id="H4ilXOE2Qp5ZFrDJ_8Ro-79" value="consulter l&#39;historique" style="ellipse;whiteSpace=wrap;html=1;" vertex="1" parent="1">
          <mxGeometry x="397.5" y="70" width="120" height="40" as="geometry" />
        </mxCell>
        <mxCell id="H4ilXOE2Qp5ZFrDJ_8Ro-81" value="Extends" style="endArrow=block;endSize=16;endFill=0;html=1;rounded=0;entryX=0;entryY=0.5;entryDx=0;entryDy=0;exitX=1;exitY=1;exitDx=0;exitDy=0;" edge="1" parent="1" source="H4ilXOE2Qp5ZFrDJ_8Ro-16" target="H4ilXOE2Qp5ZFrDJ_8Ro-79">
          <mxGeometry width="160" relative="1" as="geometry">
            <mxPoint x="300" y="85" as="sourcePoint" />
            <mxPoint x="370" y="60" as="targetPoint" />
          </mxGeometry>
        </mxCell>
        <mxCell id="H4ilXOE2Qp5ZFrDJ_8Ro-85" value="" style="endArrow=none;html=1;rounded=0;entryX=0;entryY=1;entryDx=0;entryDy=0;exitX=0.5;exitY=0;exitDx=0;exitDy=0;exitPerimeter=0;" edge="1" parent="1" source="H4ilXOE2Qp5ZFrDJ_8Ro-3" target="H4ilXOE2Qp5ZFrDJ_8Ro-8">
          <mxGeometry width="50" height="50" relative="1" as="geometry">
            <mxPoint x="30" y="160" as="sourcePoint" />
            <mxPoint x="80" y="110" as="targetPoint" />
          </mxGeometry>
        </mxCell>
        <mxCell id="H4ilXOE2Qp5ZFrDJ_8Ro-86" value="Extends" style="endArrow=block;endSize=16;endFill=0;html=1;rounded=0;entryX=0;entryY=0.5;entryDx=0;entryDy=0;exitX=1;exitY=0.5;exitDx=0;exitDy=0;" edge="1" parent="1" source="H4ilXOE2Qp5ZFrDJ_8Ro-12" target="H4ilXOE2Qp5ZFrDJ_8Ro-13">
          <mxGeometry width="160" relative="1" as="geometry">
            <mxPoint x="410" y="-10" as="sourcePoint" />
            <mxPoint x="490" y="-20" as="targetPoint" />
          </mxGeometry>
        </mxCell>
        <mxCell id="H4ilXOE2Qp5ZFrDJ_8Ro-90" value="" style="endArrow=none;html=1;rounded=0;entryX=0.219;entryY=0.057;entryDx=0;entryDy=0;entryPerimeter=0;" edge="1" parent="1" target="H4ilXOE2Qp5ZFrDJ_8Ro-14">
          <mxGeometry width="50" height="50" relative="1" as="geometry">
            <mxPoint x="60" y="-10" as="sourcePoint" />
            <mxPoint x="110" y="-60" as="targetPoint" />
            <Array as="points">
              <mxPoint x="170" y="110" />
            </Array>
          </mxGeometry>
        </mxCell>
        <mxCell id="H4ilXOE2Qp5ZFrDJ_8Ro-91" value="" style="endArrow=none;html=1;rounded=0;entryX=0.329;entryY=0.044;entryDx=0;entryDy=0;entryPerimeter=0;" edge="1" parent="1" target="H4ilXOE2Qp5ZFrDJ_8Ro-28">
          <mxGeometry width="50" height="50" relative="1" as="geometry">
            <mxPoint x="60" y="10" as="sourcePoint" />
            <mxPoint x="110" y="-40" as="targetPoint" />
          </mxGeometry>
        </mxCell>
        <mxCell id="H4ilXOE2Qp5ZFrDJ_8Ro-92" value="" style="endArrow=none;html=1;rounded=0;" edge="1" parent="1" source="H4ilXOE2Qp5ZFrDJ_8Ro-1" target="H4ilXOE2Qp5ZFrDJ_8Ro-31">
          <mxGeometry width="50" height="50" relative="1" as="geometry">
            <mxPoint x="70" y="20" as="sourcePoint" />
            <mxPoint x="120" y="-30" as="targetPoint" />
            <Array as="points">
              <mxPoint x="190" y="70" />
            </Array>
          </mxGeometry>
        </mxCell>
        <mxCell id="H4ilXOE2Qp5ZFrDJ_8Ro-93" value="Extends" style="endArrow=block;endSize=16;endFill=0;html=1;rounded=0;entryX=0;entryY=0.5;entryDx=0;entryDy=0;" edge="1" parent="1" target="H4ilXOE2Qp5ZFrDJ_8Ro-35">
          <mxGeometry width="160" relative="1" as="geometry">
            <mxPoint x="470" y="320" as="sourcePoint" />
            <mxPoint x="630" y="320" as="targetPoint" />
          </mxGeometry>
        </mxCell>
        <mxCell id="H4ilXOE2Qp5ZFrDJ_8Ro-94" value="Extends" style="endArrow=block;endSize=16;endFill=0;html=1;rounded=0;entryX=0;entryY=0.5;entryDx=0;entryDy=0;" edge="1" parent="1" target="H4ilXOE2Qp5ZFrDJ_8Ro-47">
          <mxGeometry width="160" relative="1" as="geometry">
            <mxPoint x="490" y="340" as="sourcePoint" />
            <mxPoint x="650" y="340" as="targetPoint" />
          </mxGeometry>
        </mxCell>
        <mxCell id="H4ilXOE2Qp5ZFrDJ_8Ro-95" value="Extends" style="endArrow=block;endSize=16;endFill=0;html=1;rounded=0;entryX=0.327;entryY=0.25;entryDx=0;entryDy=0;entryPerimeter=0;exitX=0.415;exitY=1.025;exitDx=0;exitDy=0;exitPerimeter=0;" edge="1" parent="1" source="H4ilXOE2Qp5ZFrDJ_8Ro-44" target="H4ilXOE2Qp5ZFrDJ_8Ro-41">
          <mxGeometry width="160" relative="1" as="geometry">
            <mxPoint x="320" y="340" as="sourcePoint" />
            <mxPoint x="480" y="340" as="targetPoint" />
          </mxGeometry>
        </mxCell>
        <mxCell id="H4ilXOE2Qp5ZFrDJ_8Ro-96" value="" style="endArrow=none;html=1;rounded=0;exitX=0.75;exitY=0.1;exitDx=0;exitDy=0;exitPerimeter=0;entryX=0;entryY=1;entryDx=0;entryDy=0;" edge="1" parent="1" source="H4ilXOE2Qp5ZFrDJ_8Ro-3" target="H4ilXOE2Qp5ZFrDJ_8Ro-12">
          <mxGeometry width="50" height="50" relative="1" as="geometry">
            <mxPoint x="60" y="220" as="sourcePoint" />
            <mxPoint x="350" y="30" as="targetPoint" />
          </mxGeometry>
        </mxCell>
        <mxCell id="H4ilXOE2Qp5ZFrDJ_8Ro-97" value="" style="endArrow=none;html=1;rounded=0;entryX=0.062;entryY=0.275;entryDx=0;entryDy=0;entryPerimeter=0;exitX=1;exitY=1;exitDx=0;exitDy=0;exitPerimeter=0;" edge="1" parent="1" source="H4ilXOE2Qp5ZFrDJ_8Ro-3" target="H4ilXOE2Qp5ZFrDJ_8Ro-44">
          <mxGeometry width="50" height="50" relative="1" as="geometry">
            <mxPoint x="70" y="290" as="sourcePoint" />
            <mxPoint x="120" y="240" as="targetPoint" />
          </mxGeometry>
        </mxCell>
        <mxCell id="H4ilXOE2Qp5ZFrDJ_8Ro-98" value="Extends" style="endArrow=block;endSize=16;endFill=0;html=1;rounded=0;exitX=1;exitY=0;exitDx=0;exitDy=0;entryX=0;entryY=0.5;entryDx=0;entryDy=0;" edge="1" parent="1" source="H4ilXOE2Qp5ZFrDJ_8Ro-12" target="H4ilXOE2Qp5ZFrDJ_8Ro-19">
          <mxGeometry width="160" relative="1" as="geometry">
            <mxPoint x="622.6530612244899" y="-150" as="sourcePoint" />
            <mxPoint x="580" y="-40" as="targetPoint" />
          </mxGeometry>
        </mxCell>
        <mxCell id="H4ilXOE2Qp5ZFrDJ_8Ro-100" value="Extends" style="endArrow=block;endSize=16;endFill=0;html=1;rounded=0;" edge="1" parent="1" target="H4ilXOE2Qp5ZFrDJ_8Ro-12">
          <mxGeometry width="160" relative="1" as="geometry">
            <mxPoint x="220" y="-80" as="sourcePoint" />
            <mxPoint x="380" y="-80" as="targetPoint" />
          </mxGeometry>
        </mxCell>
        <mxCell id="H4ilXOE2Qp5ZFrDJ_8Ro-102" value="" style="endArrow=none;html=1;rounded=0;" edge="1" parent="1" target="H4ilXOE2Qp5ZFrDJ_8Ro-30">
          <mxGeometry width="50" height="50" relative="1" as="geometry">
            <mxPoint x="70" y="-30" as="sourcePoint" />
            <mxPoint x="120" y="-80" as="targetPoint" />
            <Array as="points">
              <mxPoint x="280" y="100" />
            </Array>
          </mxGeometry>
        </mxCell>
        <mxCell id="H4ilXOE2Qp5ZFrDJ_8Ro-104" value="" style="endArrow=none;html=1;rounded=0;entryX=0;entryY=0.5;entryDx=0;entryDy=0;" edge="1" parent="1" target="H4ilXOE2Qp5ZFrDJ_8Ro-32">
          <mxGeometry width="50" height="50" relative="1" as="geometry">
            <mxPoint x="70" y="330" as="sourcePoint" />
            <mxPoint x="120" y="260" as="targetPoint" />
          </mxGeometry>
        </mxCell>
        <mxCell id="H4ilXOE2Qp5ZFrDJ_8Ro-105" value="Extends" style="endArrow=block;endSize=16;endFill=0;html=1;rounded=0;entryX=0.047;entryY=0.4;entryDx=0;entryDy=0;entryPerimeter=0;" edge="1" parent="1" target="H4ilXOE2Qp5ZFrDJ_8Ro-34">
          <mxGeometry width="160" relative="1" as="geometry">
            <mxPoint x="250" y="280" as="sourcePoint" />
            <mxPoint x="410" y="280" as="targetPoint" />
          </mxGeometry>
        </mxCell>
      </root>
    </mxGraphModel>
  </diagram>
  <diagram id="cVDfWO99-5NAnyLbVOP9" name="Page-2">
    <mxGraphModel dx="862" dy="455" grid="1" gridSize="10" guides="1" tooltips="1" connect="1" arrows="1" fold="1" page="1" pageScale="1" pageWidth="850" pageHeight="1100" math="0" shadow="0">
      <root>
        <mxCell id="0" />
        <mxCell id="1" parent="0" />
        <mxCell id="EK3tj9tIBioaG7t6uKLx-1" value="Utilisateur" style="shape=umlActor;verticalLabelPosition=bottom;verticalAlign=top;html=1;outlineConnect=0;" vertex="1" parent="1">
          <mxGeometry x="40" y="630" width="70" height="130" as="geometry" />
        </mxCell>
        <mxCell id="EK3tj9tIBioaG7t6uKLx-2" value="" style="rounded=0;whiteSpace=wrap;html=1;fontStyle=1" vertex="1" parent="1">
          <mxGeometry x="150" y="400" width="580" height="610" as="geometry" />
        </mxCell>
        <mxCell id="EK3tj9tIBioaG7t6uKLx-3" value="Authentifie" style="ellipse;whiteSpace=wrap;html=1;" vertex="1" parent="1">
          <mxGeometry x="270" y="500" width="120" height="40" as="geometry" />
        </mxCell>
        <mxCell id="EK3tj9tIBioaG7t6uKLx-4" value="email et mot de passe" style="ellipse;whiteSpace=wrap;html=1;" vertex="1" parent="1">
          <mxGeometry x="530" y="675" width="120" height="40" as="geometry" />
        </mxCell>
        <mxCell id="EK3tj9tIBioaG7t6uKLx-5" value="verification" style="ellipse;whiteSpace=wrap;html=1;" vertex="1" parent="1">
          <mxGeometry x="470" y="850" width="120" height="40" as="geometry" />
        </mxCell>
        <mxCell id="EK3tj9tIBioaG7t6uKLx-6" value="se connecter" style="ellipse;whiteSpace=wrap;html=1;" vertex="1" parent="1">
          <mxGeometry x="420" y="760" width="120" height="40" as="geometry" />
        </mxCell>
        <mxCell id="EK3tj9tIBioaG7t6uKLx-9" value="page de connection" style="ellipse;whiteSpace=wrap;html=1;" vertex="1" parent="1">
          <mxGeometry x="410" y="600" width="120" height="40" as="geometry" />
        </mxCell>
        <mxCell id="EK3tj9tIBioaG7t6uKLx-11" value="connection" style="ellipse;whiteSpace=wrap;html=1;" vertex="1" parent="1">
          <mxGeometry x="490" y="510" width="120" height="40" as="geometry" />
        </mxCell>
        <mxCell id="EK3tj9tIBioaG7t6uKLx-12" value="page d&#39;acceuil" style="ellipse;whiteSpace=wrap;html=1;" vertex="1" parent="1">
          <mxGeometry x="380" y="930" width="120" height="40" as="geometry" />
        </mxCell>
        <mxCell id="9-WzW1B8VRLLCUFaOfJC-1" value="" style="endArrow=none;html=1;rounded=0;entryX=0.075;entryY=0.75;entryDx=0;entryDy=0;entryPerimeter=0;" edge="1" parent="1" source="EK3tj9tIBioaG7t6uKLx-1" target="EK3tj9tIBioaG7t6uKLx-3">
          <mxGeometry width="50" height="50" relative="1" as="geometry">
            <mxPoint x="400" y="690" as="sourcePoint" />
            <mxPoint x="450" y="640" as="targetPoint" />
          </mxGeometry>
        </mxCell>
        <mxCell id="9-WzW1B8VRLLCUFaOfJC-2" value="Extends" style="endArrow=block;endSize=16;endFill=0;html=1;rounded=0;" edge="1" parent="1" target="EK3tj9tIBioaG7t6uKLx-11">
          <mxGeometry width="160" relative="1" as="geometry">
            <mxPoint x="380" y="530" as="sourcePoint" />
            <mxPoint x="540" y="530" as="targetPoint" />
          </mxGeometry>
        </mxCell>
        <mxCell id="xRIKAlTY0mYVS0ov5F2t-1" style="edgeStyle=orthogonalEdgeStyle;rounded=0;orthogonalLoop=1;jettySize=auto;html=1;exitX=0.5;exitY=1;exitDx=0;exitDy=0;" edge="1" parent="1" source="EK3tj9tIBioaG7t6uKLx-12" target="EK3tj9tIBioaG7t6uKLx-12">
          <mxGeometry relative="1" as="geometry" />
        </mxCell>
        <mxCell id="xRIKAlTY0mYVS0ov5F2t-2" value="email /mot de passe incorrect" style="ellipse;whiteSpace=wrap;html=1;" vertex="1" parent="1">
          <mxGeometry x="600" y="930" width="120" height="40" as="geometry" />
        </mxCell>
        <mxCell id="WJjEanBWbE-ZnsKent---2" value="Use" style="endArrow=open;endSize=12;dashed=1;html=1;rounded=0;" edge="1" parent="1" target="EK3tj9tIBioaG7t6uKLx-5">
          <mxGeometry width="160" relative="1" as="geometry">
            <mxPoint x="420" y="930" as="sourcePoint" />
            <mxPoint x="580" y="930" as="targetPoint" />
          </mxGeometry>
        </mxCell>
        <mxCell id="WJjEanBWbE-ZnsKent---3" value="Use" style="endArrow=open;endSize=12;dashed=1;html=1;rounded=0;" edge="1" parent="1" target="EK3tj9tIBioaG7t6uKLx-5">
          <mxGeometry width="160" relative="1" as="geometry">
            <mxPoint x="620" y="930" as="sourcePoint" />
            <mxPoint x="780" y="930" as="targetPoint" />
          </mxGeometry>
        </mxCell>
        <mxCell id="WJjEanBWbE-ZnsKent---4" value="Use" style="endArrow=open;endSize=12;dashed=1;html=1;rounded=0;entryX=0.308;entryY=0.975;entryDx=0;entryDy=0;entryPerimeter=0;" edge="1" parent="1" target="EK3tj9tIBioaG7t6uKLx-6">
          <mxGeometry width="160" relative="1" as="geometry">
            <mxPoint x="520" y="850" as="sourcePoint" />
            <mxPoint x="680" y="850" as="targetPoint" />
          </mxGeometry>
        </mxCell>
        <mxCell id="WJjEanBWbE-ZnsKent---5" value="Use" style="endArrow=open;endSize=12;dashed=1;html=1;rounded=0;entryX=0.5;entryY=1;entryDx=0;entryDy=0;exitX=0.5;exitY=0;exitDx=0;exitDy=0;" edge="1" parent="1" source="EK3tj9tIBioaG7t6uKLx-6" target="EK3tj9tIBioaG7t6uKLx-4">
          <mxGeometry width="160" relative="1" as="geometry">
            <mxPoint x="530" y="760" as="sourcePoint" />
            <mxPoint x="690" y="760" as="targetPoint" />
          </mxGeometry>
        </mxCell>
        <mxCell id="gpJMbnObYHjY2Recmr5N-1" value="Use" style="endArrow=open;endSize=12;dashed=1;html=1;rounded=0;" edge="1" parent="1" target="EK3tj9tIBioaG7t6uKLx-9">
          <mxGeometry width="160" relative="1" as="geometry">
            <mxPoint x="540" y="670" as="sourcePoint" />
            <mxPoint x="700" y="670" as="targetPoint" />
          </mxGeometry>
        </mxCell>
        <mxCell id="gpJMbnObYHjY2Recmr5N-2" value="Use" style="endArrow=open;endSize=12;dashed=1;html=1;rounded=0;entryX=0.35;entryY=1;entryDx=0;entryDy=0;entryPerimeter=0;exitX=0.5;exitY=0;exitDx=0;exitDy=0;" edge="1" parent="1" source="EK3tj9tIBioaG7t6uKLx-9" target="EK3tj9tIBioaG7t6uKLx-11">
          <mxGeometry width="160" relative="1" as="geometry">
            <mxPoint x="530" y="590" as="sourcePoint" />
            <mxPoint x="690" y="590" as="targetPoint" />
          </mxGeometry>
        </mxCell>
        <mxCell id="o4VHNrX2EZjVUSeKaP8U-1" value="&lt;div&gt;cas d&#39;utilisation specifique &lt;br&gt;&lt;/div&gt;&lt;div&gt;Authentification&lt;br&gt;&lt;/div&gt;" style="text;html=1;align=center;verticalAlign=middle;resizable=0;points=[];autosize=1;strokeColor=none;fillColor=none;" vertex="1" parent="1">
          <mxGeometry x="330" y="360" width="160" height="40" as="geometry" />
        </mxCell>
      </root>
    </mxGraphModel>
  </diagram>
  <diagram id="si_j8mJJ1q5LTdEy8_6h" name="Page-3">
    <mxGraphModel dx="862" dy="455" grid="1" gridSize="10" guides="1" tooltips="1" connect="1" arrows="1" fold="1" page="1" pageScale="1" pageWidth="850" pageHeight="1100" math="0" shadow="0">
      <root>
        <mxCell id="0" />
        <mxCell id="1" parent="0" />
        <mxCell id="msnmQeK1SDXr2rOW-GtB-1" value="Utilisateur" style="shape=umlActor;verticalLabelPosition=bottom;verticalAlign=top;html=1;outlineConnect=0;" vertex="1" parent="1">
          <mxGeometry x="30" y="340" width="70" height="130" as="geometry" />
        </mxCell>
        <mxCell id="msnmQeK1SDXr2rOW-GtB-2" value="" style="rounded=0;whiteSpace=wrap;html=1;" vertex="1" parent="1">
          <mxGeometry x="160" y="180" width="550" height="550" as="geometry" />
        </mxCell>
        <mxCell id="ZYXorGJduxD_RS7OaKW--1" value="cas d&#39;utilisation specifique :&lt;br&gt;&lt;div&gt;accepter les invitation a rejoindre un groupe&lt;/div&gt;" style="text;html=1;align=center;verticalAlign=middle;resizable=0;points=[];autosize=1;strokeColor=none;fillColor=none;" vertex="1" parent="1">
          <mxGeometry x="295" y="135" width="260" height="40" as="geometry" />
        </mxCell>
        <mxCell id="ZYXorGJduxD_RS7OaKW--2" value="accepter les invitation a rejoindre un groupe" style="ellipse;whiteSpace=wrap;html=1;" vertex="1" parent="1">
          <mxGeometry x="300" y="230" width="250" height="80" as="geometry" />
        </mxCell>
        <mxCell id="ZYXorGJduxD_RS7OaKW--3" value="&lt;font style=&quot;font-size: 14px;&quot;&gt;consulte l&#39;invation &lt;/font&gt;" style="ellipse;whiteSpace=wrap;html=1;" vertex="1" parent="1">
          <mxGeometry x="355" y="340" width="170" height="60" as="geometry" />
        </mxCell>
        <mxCell id="ZYXorGJduxD_RS7OaKW--4" value="Accepter " style="ellipse;whiteSpace=wrap;html=1;" vertex="1" parent="1">
          <mxGeometry x="330" y="440" width="170" height="70" as="geometry" />
        </mxCell>
        <mxCell id="ZYXorGJduxD_RS7OaKW--5" value="le systeme ajoute au groupe " style="ellipse;whiteSpace=wrap;html=1;" vertex="1" parent="1">
          <mxGeometry x="355" y="570" width="120" height="50" as="geometry" />
        </mxCell>
        <mxCell id="9whmla5QgWDeMZ4_yHR7-1" value="accede au contenu du groupe" style="ellipse;whiteSpace=wrap;html=1;" vertex="1" parent="1">
          <mxGeometry x="520" y="630" width="120" height="80" as="geometry" />
        </mxCell>
        <mxCell id="9whmla5QgWDeMZ4_yHR7-2" value="" style="endArrow=none;html=1;rounded=0;entryX=0.028;entryY=0.638;entryDx=0;entryDy=0;entryPerimeter=0;" edge="1" parent="1" target="ZYXorGJduxD_RS7OaKW--2">
          <mxGeometry width="50" height="50" relative="1" as="geometry">
            <mxPoint x="110" y="380" as="sourcePoint" />
            <mxPoint x="160" y="330" as="targetPoint" />
          </mxGeometry>
        </mxCell>
        <mxCell id="9whmla5QgWDeMZ4_yHR7-3" value="Use" style="endArrow=open;endSize=12;dashed=1;html=1;rounded=0;entryX=0.958;entryY=0.8;entryDx=0;entryDy=0;entryPerimeter=0;" edge="1" parent="1" target="ZYXorGJduxD_RS7OaKW--5">
          <mxGeometry width="160" relative="1" as="geometry">
            <mxPoint x="530" y="640" as="sourcePoint" />
            <mxPoint x="690" y="640" as="targetPoint" />
          </mxGeometry>
        </mxCell>
        <mxCell id="9whmla5QgWDeMZ4_yHR7-4" value="Use" style="endArrow=open;endSize=12;dashed=1;html=1;rounded=0;" edge="1" parent="1" source="ZYXorGJduxD_RS7OaKW--5">
          <mxGeometry x="-0.1396" y="-2" width="160" relative="1" as="geometry">
            <mxPoint x="480" y="560" as="sourcePoint" />
            <mxPoint x="420" y="510" as="targetPoint" />
            <mxPoint as="offset" />
          </mxGeometry>
        </mxCell>
        <mxCell id="9whmla5QgWDeMZ4_yHR7-5" value="Use" style="endArrow=open;endSize=12;dashed=1;html=1;rounded=0;entryX=0.606;entryY=1;entryDx=0;entryDy=0;entryPerimeter=0;" edge="1" parent="1" source="ZYXorGJduxD_RS7OaKW--4" target="ZYXorGJduxD_RS7OaKW--3">
          <mxGeometry width="160" relative="1" as="geometry">
            <mxPoint x="470" y="450" as="sourcePoint" />
            <mxPoint x="410" y="420" as="targetPoint" />
          </mxGeometry>
        </mxCell>
        <mxCell id="9whmla5QgWDeMZ4_yHR7-7" value="Use" style="endArrow=open;endSize=12;dashed=1;html=1;rounded=0;entryX=0.824;entryY=0.888;entryDx=0;entryDy=0;entryPerimeter=0;exitX=0.635;exitY=0.067;exitDx=0;exitDy=0;exitPerimeter=0;" edge="1" parent="1" source="ZYXorGJduxD_RS7OaKW--3" target="ZYXorGJduxD_RS7OaKW--2">
          <mxGeometry width="160" relative="1" as="geometry">
            <mxPoint x="380" y="340" as="sourcePoint" />
            <mxPoint x="540" y="340" as="targetPoint" />
          </mxGeometry>
        </mxCell>
      </root>
    </mxGraphModel>
  </diagram>
</mxfile>
